<svg xmlns="http://www.w3.org/2000/svg" version="1.1" viewBox="0 0 512 512">
 <path d="m287.17 54.218c-7.6529 0.16564-14.927 3.7395-20.643 10.277-3.1986 3.6607-10.42 20.099-53.447 121.72l-3.0517 7.1889h31.058l14.814-34.906c7.1864-16.932 13.432-31.253 15.055-34.557 0.2967-0.4229 0.54219-0.68534 0.75478-0.82732 0.56454-0.0385 1.5927 0.16774 2.5896 0.54473 9.5002 3.5924 22.284 2.7424 32.766-2.1773 7.4881-3.5151 16.079-11.557 19.246-18.019l2.0059-4.0907 7.192 3.0659c3.9557 1.687 12.912 5.4524 19.9 8.367 6.9884 2.9146 12.828 5.3933 12.977 5.5071 0.14909 0.11373-0.31329 2.3072-1.0269 4.8755-3.2062 11.539-2.4505 20.786 2.5279 30.943 3.9198 7.9977 9.2566 13.854 16.417 18.019l5.6105 3.2651c-0.0163 0.12882-0.0315 0.25763-0.0735 0.4409l-3.9743 9.3628-4.1386 9.751 14.473 0.24002c7.9611 0.13185 14.745-0.0643 15.075-0.43577 1.5914-1.7894 22.783-50.091 23.635-53.87 2.3126-10.263-2.556-22.678-11.207-28.58-5.0828-3.4689-127.44-54.608-133.19-55.668-1.7918-0.33045-3.5791-0.47233-5.3452-0.4341zm-54.263 14.986c-7.2246 0-9.15 0.3162-12.816 2.1109-5.6791 2.7795-10.719 7.9029-13.234 13.448-1.6036 3.5387-29.334 105.67-29.334 108.04v0.003c0 0.32958 3.0963 0.59922 6.8822 0.59922h6.8839l25.997-61.168c18.478-43.474 25.727-61.437 25.061-62.101-0.53805-0.53584-4.5617-0.93287-9.4392-0.93287zm-44.915 13.271-5.0611 0.45623c-6.9957 0.63086-13.162 3.4941-17.935 8.3278-7.0052 7.0939-7.3038 8.3014-13.408 54.207-3.028 22.77-5.7352 42.89-6.0144 44.708l-0.50662 3.3059 6.3516-0.25537 6.3499-0.25703 13.78-51.86c7.5791-28.523 14.379-53.384 15.111-55.247zm121.41 72.579c-8.5257 0-15.771 1.4867-21.715 4.4533-12.587 6.2816-20.101 16.393-22.113 29.757l-0.62471 4.1401h48.735c38.978 0 48.735-0.22232 48.735-1.1133 0-0.61274-1.3952-4.0088-3.0996-7.5464-4.4587-9.2546-14.025-18.573-24.066-23.444-9.6877-4.6996-16.087-6.2459-25.851-6.2459zm-180.08 10.287-18.184 0.38642c-15.849 0.33591-18.85 0.62743-23.371 2.2709-12.663 4.602-21.223 13.104-26.158 25.976l-1.9546 5.0985-0.25503 109.39c-0.18007 77.329 0.03041 111.05 0.71885 115.05 2.9497 17.156 16.015 30.322 33.713 33.967 1.9279 0.39704 72.515 0.6637 156.86 0.5924l153.36-0.12935 5.1279-1.944c12.941-4.908 21.489-13.423 26.117-26.017 1.6524-4.4966 1.9455-7.4808 2.2832-23.245l0.38851-18.086-40.181-0.0136c-44.822-0.0144-46.407-0.1737-58.145-5.8577-9.2478-4.4782-20.38-15.523-24.831-24.634-4.9118-10.056-6.1192-16.057-5.6054-27.869 0.63-14.489 4.6551-24.532 14.062-34.694 0.59585-0.62907 1.2051-1.2632 1.8484-1.9083 0.56592-0.5675 1.0703-1.0508 1.5952-1.5627 5.9422-5.6451 11.893-9.2764 20.087-12.253l6.427-2.3356 42.37-0.25705 42.37-0.25707-0.38683-18.046c-0.33706-15.724-0.62965-18.711-2.2815-23.206-4.627-12.595-13.175-21.109-26.117-26.017l-5.1279-1.9441-149.12-0.4358-149.12-0.43579-2.261-2.1126c-2.9282-2.736-2.93-6.1109-0.003-8.8488 2.1207-1.984 2.9769-2.1306 14.021-2.3986l11.764-0.28429zm273.88 125.7c-40.843 0.0167-44.707 0.3961-53.972 5.3079-6.1473 3.2589-14.576 11.803-17.432 17.672-4.4003 9.041-5.6059 20.04-3.1869 29.078 1.9407 7.2508 4.7673 12.23 10.251 18.06 5.8976 6.2706 13.234 10.508 21.16 12.221 4.0863 0.883 14.874 1.1977 42.743 1.2495 36.983 0.0688 37.308 0.0543 41.187-1.8913 2.8564-1.4326 4.4405-3.0099 5.881-5.8509 1.9313-3.8089 1.9717-4.5054 1.9717-34.025 0-29.519-0.0405-30.217-1.9717-34.026-1.4404-2.841-3.0245-4.4166-5.881-5.8492-1.0768-0.54005-1.9071-0.92713-3.2982-1.2104l-0.32-0.18214-0.76848 0.003c-4.0371-0.55495-12.402-0.56482-36.362-0.55496zm-21.509 25.596c4.054-0.005 8.1062 1.6192 11.375 4.8704 7.6449 7.6038 5.7075 21.156-3.6508 25.542-7.0562 3.3068-13.948 2.277-19.108-2.8548-6.5634-6.5283-6.5646-16.136 0-22.663 3.2757-3.258 7.333-4.89 11.387-4.8942z" stroke="#fffffa" stroke-width="88.575" fill="#fff"/>
 <path d="m71.43 486.99c-20.195-4.1815-35.104-19.285-38.47-38.969-0.78563-4.5951-1.0262-43.279-0.82072-132l0.2906-125.5 2.2309-5.8511c5.6309-14.768 15.4-24.523 29.85-29.803 5.1595-1.8856 8.5827-2.22 26.669-2.6054l20.75-0.44212v32.048l-13.423 0.32748c-12.603 0.30748-13.58 0.47554-16 2.7518-3.3396 3.1412-3.3385 7.012 0.003 10.151l2.5803 2.4243 170.17 0.5 170.17 0.5 5.8511 2.2309c14.768 5.6309 24.523 15.4 29.803 29.85 1.885 5.1577 2.2201 8.5831 2.6047 26.624l0.4414 20.705-48.35 0.29515-48.35 0.29514-7.3346 2.6792c-10.063 3.6758-17.16 8.1857-24.472 15.55-12.447 12.537-17.655 24.491-18.425 42.297-0.58641 13.552 0.7908 20.437 6.3959 31.974 5.079 10.454 17.783 23.126 28.336 28.264 13.395 6.5214 15.203 6.7046 66.351 6.7211l45.851 0.0148-0.44212 20.75c-0.38537 18.087-0.7198 21.51-2.6054 26.669-5.2808 14.449-15.035 24.219-29.803 29.85l-5.8511 2.2309-175 0.1487c-96.25 0.0818-176.8-0.22401-179-0.67954zm303.76-96.49c-9.0447-1.965-17.416-6.8256-24.146-14.02-6.2571-6.6889-9.4824-12.403-11.697-20.722-2.7604-10.369-1.385-22.987 3.6363-33.36 3.2598-6.7338 12.878-16.537 19.893-20.276 10.573-5.6354 14.981-6.0713 61.589-6.0905 41.623-0.0172 42.082 0.005 46.5 2.2326 3.2596 1.6437 5.0682 3.4523 6.7119 6.7119 2.2039 4.3705 2.25 5.17 2.25 39.038s-0.0461 34.668-2.25 39.038c-1.6437 3.2596-3.4523 5.0682-6.7119 6.7119-4.4267 2.2322-4.7978 2.2494-47 2.1705-31.802-0.0594-44.112-0.42153-48.775-1.4346zm33.544-30.209c10.679-5.0317 12.89-20.58 4.1661-29.304-7.4602-7.4602-18.497-7.4485-25.973 0.0274-7.4892 7.4892-7.4888 18.511 0.001 26.001 5.8879 5.8879 13.753 7.0693 21.805 3.2753zm-278.26-179.98c0.31869-2.0868 3.4066-25.17 6.862-51.295 6.9661-52.669 7.3071-54.055 15.301-62.194 5.4473-5.5458 12.483-8.8305 20.466-9.5543l5.7757-0.52372-1.5202 3.8865c-0.83614 2.1376-8.5962 30.661-17.245 63.386l-15.724 59.5-7.2474 0.29419-7.2475 0.29419zm36.458 3.0183c0-2.7199 31.644-119.9 33.474-123.96 2.8695-6.3625 8.6224-12.24 15.103-15.429 4.1836-2.0591 6.3797-2.4229 14.624-2.4229 5.566 0 10.157 0.45671 10.771 1.0715 0.76089 0.76155-7.5106 21.371-28.596 71.25l-29.667 70.179h-7.8548c-4.3202 0-7.8548-0.30939-7.8548-0.68753zm40.576-7.5625c49.1-116.59 57.34-135.45 60.99-139.65 8.0285-9.2315 18.751-13.315 29.656-11.293 6.564 1.2166 146.19 59.889 151.99 63.869 9.8723 6.7722 15.428 21.016 12.789 32.791-0.97184 4.3365-25.155 59.753-26.971 61.806-0.37713 0.42624-8.1183 0.65124-17.203 0.5l-16.517-0.27497 4.7233-11.188 4.7233-11.188-6.5074-3.8057c-8.1714-4.7788-14.26-11.498-18.733-20.674-5.6811-11.654-6.5431-22.263-2.8844-35.502 0.81433-2.9466 1.3415-5.4643 1.1714-5.5948-0.17005-0.13054-6.8342-2.9734-14.809-6.3174-7.975-3.344-18.194-7.6637-22.708-9.5992l-8.2078-3.5191-2.2887 4.694c-3.6147 7.4137-13.418 16.642-21.963 20.675-11.961 5.6445-26.55 6.6188-37.391 2.4971-1.435-0.54559-2.9422-0.78618-3.3492-0.53463-0.40701 0.25154-8.3477 18.48-17.646 40.507l-16.906 40.05h-35.44zm59.908 3.5c2.2961-15.332 10.872-26.935 25.235-34.142 6.7829-3.4037 15.051-5.1078 24.78-5.1078 11.143 0 18.445 1.7736 29.5 7.1656 11.459 5.5889 22.375 16.28 27.463 26.898 1.9451 4.0588 3.5366 7.9548 3.5366 8.6578 0 1.0223-11.135 1.2782-55.614 1.2782h-55.614z"/>
 <path stroke-linejoin="round" d="m72.692 486.25c-16.649-1.9049-32.32-15.377-37.823-32.515-2.0436-6.3643-2.0546-7.1355-1.9294-135.23l0.12589-128.83 2.1533-5.0952c6.2553-14.801 16.188-24.524 29.86-29.228 4.7347-1.629 9.4442-2.099 26.288-2.6236l20.52-0.63905-0.27199 15.667-0.27199 15.667-13.627 0.49237c-13.448 0.48587-13.659 0.52881-16.002 3.2553-3.0976 3.6044-2.996 5.8653 0.43624 9.7066l2.8107 3.1457 169.76 0.38473 169.76 0.38474 6.1901 2.4036c15.221 5.9104 24.226 14.843 29.702 29.464 1.9427 5.1865 2.2788 8.3869 2.7509 26.193l0.53784 20.285-48.64 0.53468-48.64 0.53468-6.8702 2.7623c-11.382 4.5763-15.394 7.2474-24.157 16.083-13.144 13.253-17.457 23.198-18.4 42.421-0.64894 13.229 0.6914 20.072 6.0976 31.133 6.1896 12.663 20.675 26.071 34.03 31.497 8.8313 3.5885 19.704 4.3152 64.691 4.3239l41.605 0.008-0.0175 14.032c-0.0261 20.934-1.2146 29.929-5.0057 37.885-4.4333 9.3034-12.876 17.556-23.042 22.521l-7.8779 3.848-174.3 0.11548c-95.864 0.0635-177.07-0.20139-180.45-0.5887z" stroke="#520" stroke-linecap="round" fill="#520"/>
 <path stroke-linejoin="round" d="m204.75 183.16c0.27328-0.44218 9.5944-22.35 20.714-48.684 24.666-58.419 36.265-85.118 40.268-92.688 5.3341-10.091 15.829-16.641 26.733-16.687 5.2855-0.02211 8.5923 1.0312 28.625 9.1177 46.162 18.634 121.26 50.714 128.29 54.801 8.0746 4.695 15.063 19.795 13.576 29.333-0.58131 3.7275-13.986 36.134-23.16 55.991l-3.9683 8.5893h-16.256c-8.941 0-16.256-0.17807-16.256-0.39572 0-0.21764 2.046-5.1856 4.5467-11.04 2.5007-5.8542 4.1549-10.775 3.676-10.934-3.1-1.0333-13.729-9.0095-17.082-12.818-5.4754-6.2203-10.58-17.054-11.978-25.422-0.99753-5.9697-0.9017-8.3128 0.68465-16.74 1.0145-5.3896 1.7806-9.9723 1.7024-10.184-0.19181-0.51903-45.813-19.886-46.085-19.564-0.11823 0.13966-1.2168 2.248-2.4413 4.6852-3.0775 6.1254-14.1 16.665-20.849 19.935-11.166 5.4109-23.193 6.9096-33.63 4.1909-3.119-0.8124-6.2326-1.4771-6.919-1.4771-1.6407 0-3.901 4.8833-21.195 45.79l-14.571 34.466-17.46 0.2692c-9.603 0.14806-17.236-0.0926-16.963-0.53475z" stroke="#008000" stroke-linecap="round" fill="#008000"/>
 <path stroke-linejoin="round" d="m169.69 183.24c-0.94781-0.24768-1.7233-0.98779-1.7233-1.6447 0-3.0548 29.603-112.32 32.603-120.34 2.5244-6.7471 8.5102-13.429 14.868-16.597 4.4467-2.2159 6.3528-2.5445 14.76-2.5445 8.7081 0 9.654 0.17704 9.654 1.807 0 2.4627-8.7145 23.948-34.016 83.865-11.778 27.893-21.891 51.932-22.473 53.422-0.98546 2.523-1.4299 2.7002-6.5041 2.5938-2.9955-0.0628-6.2218-0.31689-7.1696-0.56458z" stroke="#008000" stroke-linecap="round" fill="#008000"/>
 <path stroke-linejoin="round" d="m130.54 183.56c0-2.294 12.161-89.863 13.349-96.13 2.0672-10.897 3.6041-14.388 8.6075-19.548 5.3037-5.4697 11.932-8.8399 19.394-9.8603 3.2539-0.445 5.9161-0.65061 5.9161-0.45691 0 0.19369-1.5244 5.5487-3.3877 11.9-1.8632 6.3513-9.4388 34.369-16.835 62.262-7.3958 27.893-13.515 50.764-13.599 50.825-0.50997 0.37412-13.446 1.3442-13.446 1.0084z" stroke="#008000" stroke-linecap="round" fill="#008000"/>
 <path stroke-linejoin="round" d="m267.42 182.15c0-3.5176 3.0789-13.463 5.6042-18.103 3.3114-6.0841 12.264-14.626 18.802-17.939 7.1038-3.5998 15.983-5.4918 25.854-5.5089 10.431-0.018 17.741 1.7862 28.518 7.0388 11.205 5.4611 22.607 16.639 27.962 27.412l3.6711 7.3855-12.616 0.62629c-6.9389 0.34445-31.782 0.6768-55.206 0.73855-40.309 0.10625-42.59 0.0179-42.59-1.6503z" stroke="#008000" stroke-linecap="round" fill="#008000"/>
 <path stroke-linejoin="round" d="m383.87 390.74c-10.004-0.64654-11.782-1.0637-18.335-4.3024-8.6696-4.2847-18.71-14.282-22.545-22.447-6.8195-14.52-5.5671-32.895 3.1006-45.493 4.1838-6.081 13.002-13.861 19.071-16.826 9.2188-4.5034 14.004-4.9031 59.33-4.9557l42.344-0.0491 4.185 2.3969c2.7625 1.5822 4.8545 3.7798 6.1546 6.4655 1.8547 3.8312 1.9696 6.0806 1.9696 38.561 0 34.049-0.029 34.547-2.2547 38.756-1.4708 2.7814-3.6106 4.975-6.1546 6.3095-3.727 1.955-5.4933 2.0514-39.843 2.1727-19.769 0.0698-40.928-0.19525-47.021-0.58902zm22.018-29.057c8.0851-2.401 12.475-8.4134 12.595-17.251 0.1053-7.7498-3.5115-13.701-10.419-17.143-6.0442-3.0119-9.7074-3.1795-15.084-0.69011-6.6149 3.0626-12.309 10.901-12.309 16.943 0 7.2118 6.0391 15.754 12.888 18.23 4.5254 1.636 6.569 1.6212 12.33-0.0895z" stroke="#808000" stroke-linecap="round" fill="#808000"/>
</svg>
